<svg width="48" height="48" viewBox="0 0 48 48" fill="none" xmlns="http://www.w3.org/2000/svg">
<path d="M18.2816 40.6852C14.7149 39.5307 11.7745 37.4194 9.46017 34.3513C7.14588 31.2832 5.98874 27.7589 5.98874 23.7784C5.98874 22.7402 6.0747 21.7127 6.24662 20.6957C6.41854 19.6788 6.69295 18.6843 7.06984 17.7123L2.76527 20.1958L1.81311 18.4899L9.5296 14.0266L13.9929 21.7332L12.277 22.7627L9.29354 17.6052C8.85317 18.5745 8.52917 19.5829 8.32154 20.6303C8.11392 21.6776 8.01011 22.7396 8.01011 23.816C8.01011 27.3787 9.07071 30.544 11.1919 33.3119C13.3131 36.0798 16.0195 37.9524 19.3111 38.9296L18.2816 40.6852ZM30.1757 15.8298V13.8461H36.0771C34.5814 11.9629 32.7591 10.5135 30.6101 9.49789C28.4611 8.48225 26.1925 7.97377 23.8041 7.97244C21.7067 7.97244 19.7455 8.34934 17.9205 9.10314C16.0982 9.85561 14.4835 10.897 13.0764 12.2274L12.0469 10.4342C13.6246 9.04826 15.4072 7.9612 17.3949 7.17302C19.3838 6.38352 21.5077 5.98877 23.7664 5.98877C26.3531 5.98877 28.7983 6.50849 31.102 7.54794C33.4058 8.58738 35.4112 10.0831 37.1185 12.035V6.90523H39.1022V15.8318L30.1757 15.8298ZM30.4494 45.3964L22.7329 40.8935L27.1962 33.2266L28.9022 34.2184L25.8076 39.499C29.734 38.9872 33.0136 37.2435 35.6466 34.268C38.2796 31.2925 39.5968 27.8045 39.5981 23.8041C39.5981 23.1099 39.5518 22.4275 39.4593 21.757C39.3667 21.0878 39.2232 20.4352 39.0288 19.7991H41.0998C41.2611 20.4339 41.3814 21.0806 41.4608 21.7391C41.5401 22.3964 41.5798 23.0722 41.5798 23.7664C41.5798 28.0776 40.2243 31.8664 37.5133 35.1329C34.8009 38.3993 31.35 40.428 27.1605 41.2188L31.4413 43.6905L30.4494 45.3964Z" fill="white"/>
</svg>
